<?xml version="1.0" encoding="UTF-8" standalone="no"?>
<!-- Created with Inkscape (http://www.inkscape.org/) -->

<svg
   width="500mm"
   height="320mm"
   viewBox="0 0 500 320"
   version="1.1"
   id="svg1"
   inkscape:version="1.3.1 (6036e22fae, 2023-11-19, custom)"
   sodipodi:docname="new"
   xmlns:inkscape="http://www.inkscape.org/namespaces/inkscape"
   xmlns:sodipodi="http://sodipodi.sourceforge.net/DTD/sodipodi-0.dtd"
   xmlns="http://www.w3.org/2000/svg"
   xmlns:svg="http://www.w3.org/2000/svg">
  <sodipodi:namedview
     id="namedview1"
     pagecolor="#ffffff"
     bordercolor="#000000"
     borderopacity="0.25"
     inkscape:showpageshadow="2"
     inkscape:pageopacity="0.0"
     inkscape:pagecheckerboard="0"
     inkscape:deskcolor="#d1d1d1"
     inkscape:document-units="mm"
     showguides="true"
     inkscape:zoom="0.32"
     inkscape:cx="887.5"
     inkscape:cy="607.8125"
     inkscape:window-width="1024"
     inkscape:window-height="623"
     inkscape:window-x="0"
     inkscape:window-y="0"
     inkscape:window-maximized="1"
     inkscape:current-layer="layer1" />
  <defs
     id="defs1">
    <inkscape:path-effect
       effect="bspline"
       id="path-effect10"
       is_visible="true"
       lpeversion="1.3"
       weight="33.333333"
       steps="2"
       helper_size="0"
       apply_no_weight="true"
       apply_with_weight="true"
       only_selected="false"
       uniform="false" />
  </defs>
  <g
     inkscape:label="Layer 1"
     inkscape:groupmode="layer"
     id="layer1">
    <g
       id="g24"
       transform="translate(43.391688,1.0583333)"
       inkscape:label="g24">
      <g
         id="g23"
         transform="translate(-8.17316,-10.924354)">
        <g
           id="g20"
           transform="matrix(0.89124816,0,0,0.89124816,16.963831,8.7179013)">
          <path
             id="circle12"
             style="fill:#501616;stroke:#000000;stroke-width:0"
             d="m 174.29996,98.820325 a 62.814674,62.814674 0 0 0 -62.81478,62.814775 62.814674,62.814674 0 0 0 62.81478,62.81477 62.814674,62.814674 0 0 0 62.81477,-62.81477 62.814674,62.814674 0 0 0 -62.81477,-62.814775 z m -0.37208,12.396655 a 51.31934,51.31934 0 0 1 51.31935,51.31935 51.31934,51.31934 0 0 1 -51.31935,51.31935 51.31934,51.31934 0 0 1 -51.31934,-51.31935 51.31934,51.31934 0 0 1 51.31934,-51.31935 z" />
        </g>
        <g
           id="g22"
           transform="matrix(1,0,0,0.94040211,-10.054167,2.2906056)">
          <rect
             style="fill:#000000;stroke:#000000;stroke-width:0"
             id="rect13"
             width="15.61374"
             height="3.4941037"
             x="237.84294"
             y="-215.88362"
             ry="9.384241e-19"
             transform="scale(1,-1)" />
          <path
             style="fill:#000000;stroke:#000000;stroke-width:0"
             d="m 251.70424,215.92525 2.72801,0.0881 0.18689,-41.74763 -2.5756,0.15342 z"
             id="path14"
             sodipodi:nodetypes="ccccc" />
        </g>
        <path
           id="path22"
           style="fill:#000000;stroke:#000000;stroke-width:0"
           d="m 323.33464,87.980232 -37.5473,41.613858 -0.0453,23.89368 -0.60971,-0.009 35.17082,38.97568 12.57102,1.05676 -46.43128,-51.79147 48.17917,-53.740613 z"
           transform="translate(-34.689361,10.395187)" />
        <g
           id="g21"
           transform="matrix(1,0,0,0.94534746,-10.054167,-1.6425443)">
          <rect
             style="fill:#000000;stroke:#000000;stroke-width:0"
             id="rect12"
             width="15.61374"
             height="3.4941037"
             x="237.84294"
             y="-108.99313"
             ry="9.384241e-19"
             transform="scale(1,-1)" />
          <path
             style="fill:#000000;stroke:#000000;stroke-width:0"
             d="m 251.70424,147.66232 2.72801,0.0881 0.18689,-41.74763 -2.5756,0.15342 z"
             id="path17"
             sodipodi:nodetypes="ccccc" />
        </g>
      </g>
      <g
         id="g19"
         transform="translate(79.72595,-120.86283)">
        <path
           style="fill:#000000;stroke:#000000;stroke-width:0"
           d="m 122.14304,257.99958 h 17.58529 l -3.56753,-3.56752 27.37446,7.33496 -27.02213,7.24056 3.37738,-3.37738 h -17.84875 z"
           id="path18" />
        <path
           style="fill:#000000;stroke:#000000;stroke-width:0"
           d="m 147.42735,265.7346 -17.58131,-0.37405 3.49084,3.6426 -27.21225,-7.91557 27.17002,-6.66415 -3.44845,3.30478 17.84471,0.37964 z"
           id="path19" />
      </g>
    </g>
  </g>
</svg>
